<svg id="Layer_1" xmlns="http://www.w3.org/2000/svg" viewBox="-429 231 100 100"><style>.st0{fill:#05386B;} .st1{fill:none;stroke:#05386B;stroke-width:5;stroke-miterlimit:10;}</style><path class="st0" d="M-399.5 270.9h40.5c1.9 0 3.4-1.5 3.4-3.4s-1.5-3.4-3.4-3.4h-40.5c-1.9 0-3.4 1.5-3.4 3.4s1.6 3.4 3.4 3.4zm40.5 6.8h-40.5c-1.9 0-3.4 1.5-3.4 3.4s1.5 3.4 3.4 3.4h40.5c1.9 0 3.4-1.5 3.4-3.4s-1.5-3.4-3.4-3.4zm0 13.5h-40.5c-1.9 0-3.4 1.5-3.4 3.4s1.5 3.4 3.4 3.4h40.5c1.9 0 3.4-1.5 3.4-3.4s-1.5-3.4-3.4-3.4z"/><circle class="st1" cx="-379.2" cy="281.1" r="46.2"/></svg>