<?xml version="1.0" encoding="utf-8"?>
<!-- Generator: Adobe Illustrator 19.0.0, SVG Export Plug-In . SVG Version: 6.00 Build 0)  -->
<svg version="1.1" id="Layer_1" xmlns="http://www.w3.org/2000/svg" xmlns:xlink="http://www.w3.org/1999/xlink" x="0px" y="0px"
	 viewBox="-429 231 100 100" style="enable-background:new -429 231 100 100;" xml:space="preserve">
<path style="fill:#05386B;" d="M-399.3,270.8h40.5c1.9,0,3.4-1.5,3.4-3.4s-1.5-3.4-3.4-3.4h-40.5c-1.9,0-3.4,1.5-3.4,3.4
	S-401.1,270.8-399.3,270.8z M-358.8,277.6h-40.5c-1.9,0-3.4,1.5-3.4,3.4s1.5,3.4,3.4,3.4h40.5c1.9,0,3.4-1.5,3.4-3.4
	S-356.9,277.6-358.8,277.6z M-358.8,291.1h-40.5c-1.9,0-3.4,1.5-3.4,3.4s1.5,3.4,3.4,3.4h40.5c1.9,0,3.4-1.5,3.4-3.4
	S-356.9,291.1-358.8,291.1z"/>
<circle style="fill:none;stroke:#05386B;stroke-width:3;stroke-miterlimit:10;" cx="-379" cy="281" r="46.2"/>
</svg>
