<?xml version="1.0" encoding="utf-8"?>
<!-- Generator: Adobe Illustrator 19.0.0, SVG Export Plug-In . SVG Version: 6.00 Build 0)  -->
<svg version="1.1" id="logo" xmlns="http://www.w3.org/2000/svg" xmlns:xlink="http://www.w3.org/1999/xlink" x="0px" y="0px"
	 viewBox="-393 170.1 492.1 461.9" style="enable-background:new -393 170.1 492.1 461.9;" xml:space="preserve">
<style type="text/css">
	.st0{fill:#1A3966;stroke:#FFFFFF;stroke-width:14;stroke-miterlimit:10;}
	.st1{fill:#FFFFFF;stroke:#FFFFFF;stroke-width:0.25;stroke-miterlimit:10;}
	.st2{fill:#F39619;}
	.st3{fill:#FFFFFF;stroke:#FFFFFF;stroke-width:2;stroke-miterlimit:10;}
	.st4{fill:none;stroke:#FFFFFF;stroke-width:14;stroke-miterlimit:10;}
	.st5{fill:#FFFFFF;stroke:#FFFFFF;stroke-miterlimit:10;}
</style>
<g id="bot">
	<path id="carro_1_" class="st0" d="M91.1,541.9h-475.4c-0.6,0-1,0.5-1.1,1.1l-0.6,37.8c0,0.6,0.4,1.1,1,1.1h34.4
		c0,0.5-0.1,1-0.1,1.6c-0.4,22.9,17.4,41.5,39.8,41.5s40.8-18.6,41.2-41.5c0-0.5,0-1-0.1-1.6h257.2c0,0.5-0.1,1-0.1,1.6
		C-13.1,606.4,4.7,625,27.1,625s40.8-18.6,41.2-41.5c0-0.5,0-1-0.1-1.6h22.2c0.6,0,1-0.5,1.1-1.1l0.6-37.8
		C92.2,542.4,91.7,541.9,91.1,541.9z"/>
	<path id="rueda2_1_" class="st1" d="M-295.5,581.9c-0.1,8-6.5,14.6-14.2,14.6c-7.7,0-13.8-6.5-13.7-14.6c0.1-8,6.5-14.6,14.2-14.6
		C-301.5,567.3-295.4,573.8-295.5,581.9z"/>
	<path id="rueda1_1_" class="st1" d="M42.5,581.9c-0.1,8-6.5,14.6-14.2,14.6s-13.8-6.5-13.7-14.6c0.1-8.1,6.5-14.6,14.2-14.6
		C36.6,567.3,42.7,573.8,42.5,581.9z"/>
</g>
<g id="name">
	<path id="XMLID_77_" class="st2" d="M-368.1,430.4l4.2,66.3l14.7-66.3h13.7l-7.6,95.6h-10.3l1.9-23.4l4.5-43.2l-15.4,66.6h-6.8
		l-5-69.1l-2.8,47.8l-1.7,21.2H-389l7.6-95.6L-368.1,430.4L-368.1,430.4z"/>
	<path id="XMLID_74_" class="st2" d="M-297.7,508.1h-14l-3.9,17.9h-11.3l23.2-95.6h9.7l8.1,95.6h-10.8L-297.7,508.1z M-307.9,490.3
		h9.1l-1.9-33L-307.9,490.3z"/>
	<path id="XMLID_72_" class="st2" d="M-258.4,508.2h17.9l-1.4,17.7H-270l7.6-95.6h10.3L-258.4,508.2z"/>
	<path id="XMLID_69_" class="st2" d="M-212.1,493.4l-2.6,32.5H-225l7.6-95.6l15.7,0.1c4.9,0,8.7,3,11.5,8.9s4,13.6,3.7,23
		c-0.2,6.4-1.2,12-2.8,16.7s-3.8,8.3-6.5,10.8s-5.7,3.7-9.1,3.7L-212.1,493.4z M-210.7,475.7l6.2,0.1c2.6-0.1,4.6-2,6-5.6
		s1.9-8,1.7-13.2c-0.2-2.7-0.6-4.8-1.4-6.3c-0.8-1.6-1.8-2.4-3.1-2.6l-7.2-0.1L-210.7,475.7z"/>
	<path id="XMLID_66_" class="st2" d="M-153.1,508.1h-14L-171,526h-11.3l23.2-95.6h9.7l8.1,95.6H-152L-153.1,508.1z M-163.2,490.3
		h9.1l-1.9-33L-163.2,490.3z"/>
	<path id="XMLID_63_" class="st2" d="M-106.7,492.1h-5.7l-2.7,33.8h-10.3l7.6-95.6l15.5,0.1c5,0,8.8,2.5,11.5,7.6s3.9,11.9,3.6,20.7
		c-0.2,6.9-1.1,12.6-2.7,17.1s-3.9,8.1-6.7,10.7l5.9,38.3v1.1h-11L-106.7,492.1z M-111.1,474.4l6,0.1c1.6,0,3.1-0.9,4.3-2.6
		c1.2-1.8,2.1-4.2,2.6-7.2c0.5-3.1,0.7-6,0.5-8.9c-0.4-4.9-1.8-7.4-4.3-7.7l-7-0.1L-111.1,474.4z"/>
	<path id="XMLID_61_" class="st2" d="M-35.7,448.1h-12.8l-6.2,77.8H-65l6.2-77.8h-12.6l1.4-17.8h35.6L-35.7,448.1z"/>
	<path id="XMLID_59_" class="st2" d="M-14,525.9h-10.3l7.6-95.6h10.3L-14,525.9z"/>
	<path id="XMLID_56_" class="st2" d="M5.7,525.9l7.6-95.6l12.9,0.1c3.8,0,7.1,2.2,9.9,6.5c2.8,4.4,4.8,10.3,6,17.8
		c1,6.6,1.3,13.7,0.9,21.4l-0.2,4c-0.5,8.6-1.8,16.3-3.9,23.3s-4.7,12.4-8,16.4s-6.8,6-10.5,6.1L5.7,525.9L5.7,525.9z M22.2,448.1
		l-4.8,60.1l3,0.1c3.5,0,6.4-3,8.5-8.9c2.1-6,3.4-15.1,3.8-27.3l0.1-2.2c0.1-7-0.4-12.3-1.5-16c-1.1-3.6-2.9-5.5-5.1-5.7L22.2,448.1
		z"/>
	<path id="XMLID_53_" class="st2" d="M82.1,508.1h-14L64.2,526H52.8L76,430.4h9.7l8.1,95.6H83.1L82.1,508.1z M71.9,490.3H81l-1.9-33
		L71.9,490.3z"/>
</g>
<g id="top">
	<path id="XMLID_51_" class="st0" d="M-54.1,414.8h-320.1c-3.1,0-5.7-2.5-5.7-5.7V182.8c0-3.1,2.5-5.7,5.7-5.7h320.1
		c3.1,0,5.7,2.5,5.7,5.7v226.3C-48.4,412.2-51,414.8-54.1,414.8z"/>
	<path id="XMLID_48_" class="st0" d="M76.5,414.8H-61.1V278c0-1.6,1.3-2.8,2.8-2.8h95.1c21.9,0,39.7,17.8,39.7,39.7V414.8z"/>
	<path id="XMLID_47_" class="st3" d="M69.6,358.7H26c-6.3,0-11.3-5.1-11.3-11.3v-26.6c0-6.3,5.1-11.3,11.3-11.3h43.6V358.7z"/>
	<line id="XMLID_50_" class="st4" x1="-380.8" y1="295.9" x2="-60.6" y2="295.9"/>
	<path id="XMLID_46_" class="st5" d="M-23.2,342.7h-13.3c-3.1,0-5.7-2.5-5.7-5.7v-33.3c0-3.1,2.5-5.7,5.7-5.7h13.3
		c3.1,0,5.7,2.5,5.7,5.7V337C-17.6,340.1-20.1,342.7-23.2,342.7z"/>
</g>
</svg>
