<?xml version="1.0" encoding="utf-8"?>
<!-- Generator: Adobe Illustrator 19.0.0, SVG Export Plug-In . SVG Version: 6.00 Build 0)  -->
<svg version="1.1" id="Layer_1" xmlns="http://www.w3.org/2000/svg" xmlns:xlink="http://www.w3.org/1999/xlink" x="0px" y="0px"
	 viewBox="0 0 492.2 461.9" style="enable-background:new 0 0 492.2 461.9;" xml:space="preserve">
<style type="text/css">
	.st0{fill-rule:evenodd;clip-rule:evenodd;fill:#1A3966;stroke:#FFFFFF;stroke-width:14;stroke-miterlimit:10;}
	.st1{fill-rule:evenodd;clip-rule:evenodd;fill:#FFFFFF;}
	.st2{fill:#F7931E;}
	.st3{fill:#1A3966;stroke:#FFFFFF;stroke-width:12;stroke-miterlimit:10;}
	.st4{fill:#FFFFFF;}
</style>
<g id="XMLID_410_">
	<g id="carreta_3_">
		<path id="carro_3_" class="st0" d="M484.1,371.8H8.7c-0.6,0-1,0.5-1.1,1.1L7,410.7c0,0.6,0.4,1.1,1,1.1h34.4c0,0.5-0.1,1-0.1,1.6
			c-0.4,22.9,17.4,41.5,39.8,41.5s40.8-18.6,41.2-41.5c0-0.5,0-1-0.1-1.6h257.2c0,0.5-0.1,1-0.1,1.6c-0.4,22.9,17.4,41.5,39.8,41.5
			c22.4,0,40.8-18.6,41.2-41.5c0-0.5,0-1-0.1-1.6h22.2c0.6,0,1-0.5,1.1-1.1l0.6-37.8C485.2,372.3,484.7,371.8,484.1,371.8z"/>
		<path id="rueda2_3_" class="st1" d="M97.5,411.8c-0.1,8-6.5,14.6-14.2,14.6s-13.8-6.5-13.7-14.6c0.1-8,6.5-14.6,14.2-14.6
			S97.6,403.7,97.5,411.8z"/>
		<path id="rueda1_3_" class="st1" d="M435.5,411.8c-0.1,8-6.5,14.6-14.2,14.6c-7.7,0-13.8-6.5-13.7-14.6c0.1-8,6.5-14.6,14.2-14.6
			C429.6,397.2,435.7,403.7,435.5,411.8z"/>
	</g>
	<g id="logo_3_">
		<g id="XMLID_10_">
			<path id="XMLID_11_" class="st2" d="M24.9,260.3l4.2,66.3l14.7-66.3h13.7l-7.6,95.6H39.6l1.9-23.4l4.5-43.2l-15.4,66.6h-6.8
				l-5-69.1L16,334.6l-1.7,21.2H4l7.6-95.6H24.9z"/>
			<path id="XMLID_13_" class="st2" d="M95.3,338h-14l-3.9,17.9H66.1l23.2-95.6H99l8.1,95.6H96.3L95.3,338z M85.1,320.2h9.1l-1.9-33
				L85.1,320.2z"/>
			<path id="XMLID_16_" class="st2" d="M134.6,338.1h17.9l-1.4,17.7h-28.1l7.6-95.6h10.3L134.6,338.1z"/>
			<path id="XMLID_18_" class="st2" d="M180.9,323.3l-2.6,32.5H168l7.6-95.6l15.7,0.1c4.9,0,8.7,3,11.5,8.9c2.8,5.9,4,13.6,3.7,23
				c-0.2,6.4-1.2,12-2.8,16.7c-1.6,4.7-3.8,8.3-6.5,10.8c-2.7,2.5-5.7,3.7-9.1,3.7L180.9,323.3z M182.3,305.6l6.2,0.1
				c2.6-0.1,4.6-2,6-5.6c1.4-3.6,1.9-8,1.7-13.2c-0.2-2.7-0.6-4.8-1.4-6.3c-0.8-1.6-1.8-2.4-3.1-2.6l-7.2-0.1L182.3,305.6z"/>
			<path id="XMLID_21_" class="st2" d="M239.9,338h-14l-3.9,17.9h-11.3l23.2-95.6h9.7l8.1,95.6H241L239.9,338z M229.8,320.2h9.1
				l-1.9-33L229.8,320.2z"/>
			<path id="XMLID_24_" class="st2" d="M286.3,322h-5.7l-2.7,33.8h-10.3l7.6-95.6l15.5,0.1c5,0,8.8,2.5,11.5,7.6
				c2.7,5.1,3.9,11.9,3.6,20.7c-0.2,6.9-1.1,12.6-2.7,17.1c-1.6,4.5-3.9,8.1-6.7,10.7l5.9,38.3v1.1h-11L286.3,322z M281.9,304.3
				l6,0.1c1.6,0,3.1-0.9,4.3-2.6c1.2-1.8,2.1-4.2,2.6-7.2c0.5-3.1,0.7-6,0.5-8.9c-0.4-4.9-1.8-7.4-4.3-7.7l-7-0.1L281.9,304.3z"/>
			<path id="XMLID_27_" class="st2" d="M357.3,278h-12.8l-6.2,77.8H328l6.2-77.8h-12.6l1.4-17.8h35.6L357.3,278z"/>
			<path id="XMLID_29_" class="st2" d="M379,355.8h-10.3l7.6-95.6h10.3L379,355.8z"/>
			<path id="XMLID_31_" class="st2" d="M398.7,355.8l7.6-95.6l12.9,0.1c3.8,0,7.1,2.2,9.9,6.5c2.8,4.4,4.8,10.3,6,17.8
				c1,6.6,1.3,13.7,0.9,21.4l-0.2,4c-0.5,8.6-1.8,16.3-3.9,23.3c-2.1,7-4.7,12.4-8,16.4c-3.3,4-6.8,6-10.5,6.1H398.7z M415.2,278
				l-4.8,60.1l3,0.1c3.5,0,6.4-3,8.5-8.9c2.1-6,3.4-15.1,3.8-27.3l0.1-2.2c0.1-7-0.4-12.3-1.5-16c-1.1-3.6-2.9-5.5-5.1-5.7
				L415.2,278z"/>
			<path id="XMLID_34_" class="st2" d="M475.1,338h-14l-3.9,17.9h-11.4l23.2-95.6h9.7l8.1,95.6h-10.7L475.1,338z M464.9,320.2h9.1
				l-1.9-33L464.9,320.2z"/>
		</g>
	</g>
	<g id="XMLID_8_">
		<g id="XMLID_7_">
			<path id="XMLID_424_" class="st0" d="M338.9,244.7H18.8c-3.1,0-5.7-2.5-5.7-5.7V12.7c0-3.1,2.5-5.7,5.7-5.7h320.1
				c3.1,0,5.7,2.5,5.7,5.7V239C344.6,242.1,342,244.7,338.9,244.7z"/>
			<line id="XMLID_422_" class="st3" x1="12.2" y1="125.8" x2="332.4" y2="125.8"/>
		</g>
		<path id="XMLID_48_" class="st0" d="M429.8,104.6h-95.1c-1.6,0-2.7,1.7-2.7,3.3v136.7h137v-99.8
			C469.1,122.9,451.7,104.6,429.8,104.6z M463.1,180.6h-39c-2.8,0-5-2-5-4.8v-25.8c0-2.8,2.2-5.5,5-5.5h39V180.6z"/>
		<path id="XMLID_411_" class="st4" d="M369.8,172.6h-13.3c-3.1,0-5.7-2.5-5.7-5.7v-33.3c0-3.1,2.5-5.7,5.7-5.7h13.3
			c3.1,0,5.7,2.5,5.7,5.7v33.3C375.4,170,372.9,172.6,369.8,172.6z"/>
	</g>
</g>
<rect id="XMLID_43_" x="418.1" y="142.6" class="st1" width="45" height="39.5"/>
</svg>
