<?xml version="1.0" encoding="utf-8"?>
<!-- Generator: Adobe Illustrator 19.0.0, SVG Export Plug-In . SVG Version: 6.00 Build 0)  -->
<svg version="1.1" id="Layer_1" xmlns="http://www.w3.org/2000/svg" xmlns:xlink="http://www.w3.org/1999/xlink" x="0px" y="0px"
	 viewBox="-223 87.2 512 387.7" style="enable-background:new -223 87.2 512 387.7;" xml:space="preserve">
<style type="text/css">
	.st0{fill:#FF9900;}
</style>
<g>
	<g>
		<path class="st0" d="M285.4,102.4c-7.7-14.2-25.5-19.4-39.7-11.7L115.1,162c-11.8,6.5-20.5,17.1-24.3,30.1
			c-3.2,11-2.6,22.5,1.6,33H-26.4c4.2-10.5,4.8-22,1.6-33c-3.8-12.9-12.4-23.6-24.3-30.1l-130.6-71.3c-14.1-7.7-31.9-2.5-39.7,11.7
			c-7.7,14.2-2.5,31.9,11.7,39.7l14.5,7.9c-3.7,2.5-6.9,5.9-9.2,10.1c-3.7,6.9-4.6,14.8-2.4,22.2c2.2,7.5,7.2,13.7,14,17.4l14.5,7.9
			c-3.8,2.6-6.9,6-9.2,10.1c-3.7,6.9-4.6,14.8-2.4,22.2c2.2,7.5,7.2,13.7,14,17.4l39.4,21.5v169c0,14.8,12.1,26.9,26.9,26.9h281
			c14.8,0,26.9-12.1,26.9-26.9v-169l39.4-21.5c6.9-3.7,11.8-9.9,14-17.4c2.2-7.5,1.4-15.4-2.4-22.2c-2.2-4.1-5.4-7.6-9.2-10.1
			l14.5-7.9c6.9-3.7,11.8-9.9,14-17.4c2.2-7.5,1.4-15.4-2.4-22.2c-2.2-4.1-5.4-7.6-9.2-10.1l14.5-7.9c6.9-3.7,11.8-9.9,14-17.4
			C290,117.1,289.2,109.2,285.4,102.4z M150.8,241L33,349.7L-84.8,241H150.8z M-2.5,338.7l-116,71.4V251.9c0-5.8,4.5-10.5,10.2-10.9
			L-2.5,338.7z M-134.4,251.9v8.8l-31.8-17.3c-3.1-1.7-5.4-4.5-6.4-7.9c-1-3.4-0.6-7,1.1-10.1c1.7-3.1,4.5-5.4,7.9-6.4
			c3.4-1,7-0.6,10.1,1.1l0,0l10.4,5.8c1.2,0.7,2.6,1,3.9,1c2.8,0,5.5-1.5,7-4.1c2.1-3.8,0.7-8.7-3.1-10.8l-10.4-5.8c0,0,0,0,0,0
			c0,0,0,0,0,0l-37.3-20.4c-3.1-1.7-5.4-4.5-6.4-7.9c-1-3.4-0.6-7,1.1-10.1c3.5-6.4,11.6-8.8,18-5.3l0,0c0,0,0.1,0,0.1,0.1
			c0,0,0.1,0,0.1,0.1l50.8,25.6c1.1,0.6,2.4,0.9,3.6,0.9c2.9,0,5.7-1.6,7.1-4.4c2-3.9,0.4-8.7-3.5-10.7l-50.7-25.5l-37.2-20.3
			c-6.4-3.5-8.8-11.6-5.3-18c3.5-6.4,11.6-8.8,18-5.3L-56.8,176c8.1,4.4,14,11.7,16.6,20.6c2.6,8.9,1.6,18.2-2.8,26.3l-1.2,2.2
			h-63.3C-122.4,225-134.4,237.1-134.4,251.9z M184.5,447.9c0,6-4.9,11-11,11h-281c-6,0-11-4.9-11-11v-19.1L9.7,349.9l17.9,16.5
			c1.5,1.4,3.5,2.1,5.4,2.1s3.9-0.7,5.4-2.1l17.9-16.5l27.7,17c3.1,1.9,7.2,1.5,9.8-1.2c3.6-3.6,2.9-9.7-1.5-12.4l-23.8-14.7
			L174.2,241c5.7,0.4,10.2,5.1,10.2,10.9v158.1L132.3,378c-3.1-1.9-7.2-1.5-9.8,1.2c-3.6,3.6-2.9,9.7,1.5,12.4l60.5,37.3
			L184.5,447.9L184.5,447.9z M272.5,120.1c-1,3.4-3.3,6.2-6.4,7.9l-37.2,20.3l-50.7,25.5c-3.9,2-5.5,6.8-3.5,10.7
			c1.4,2.8,4.2,4.4,7.1,4.4c1.2,0,2.4-0.3,3.6-0.9l50.8-25.6c0,0,0.1,0,0.1-0.1c0,0,0.1,0,0.1-0.1c6.4-3.5,14.5-1.1,18,5.3
			c1.7,3.1,2.1,6.7,1.1,10.1c-1,3.4-3.3,6.2-6.4,7.9l-37.3,20.3c0,0,0,0,0,0c0,0,0,0,0,0c0,0,0,0,0,0l-10.4,5.8
			c-3.9,2.1-5.2,7-3.1,10.8c1.5,2.6,4.2,4.1,7,4.1c1.3,0,2.6-0.3,3.9-1l10.4-5.8c0,0,0,0,0,0c3.1-1.7,6.7-2.1,10.1-1.1
			s6.2,3.3,7.9,6.4c1.7,3.1,2.1,6.7,1.1,10.1c-1,3.4-3.3,6.2-6.4,7.9l-31.8,17.3v-8.8c0-14.8-12.1-26.9-26.9-26.9h-63.3l-1.2-2.2
			c-4.4-8.1-5.4-17.4-2.8-26.3s8.5-16.2,16.6-20.6l130.6-71.3c6.4-3.5,14.5-1.1,18,5.3C273.1,113.1,273.5,116.7,272.5,120.1z"/>
	</g>
</g>
</svg>
